<mxfile host="app.diagrams.net" modified="2023-07-04T12:56:10.251Z" agent="Mozilla/5.0 (Windows NT 10.0; Win64; x64; rv:109.0) Gecko/20100101 Firefox/114.0" etag="XgcTkyoxkfjHq2zxUkVu" version="21.5.2" type="device">
  <diagram name="Seite-1" id="VZz0ItnqxEzTj_FaeZ-Q">
    <mxGraphModel dx="1728" dy="928" grid="0" gridSize="10" guides="1" tooltips="1" connect="1" arrows="1" fold="1" page="1" pageScale="1" pageWidth="3300" pageHeight="2339" background="#0D1E38" math="0" shadow="0">
      <root>
        <mxCell id="0" />
        <mxCell id="1" parent="0" />
        <mxCell id="BJNJkRzmfPv45xhMf_EX-42" value="" style="rounded=0;whiteSpace=wrap;html=1;fillColor=#18141d;fontColor=#333333;strokeColor=#666666;" vertex="1" parent="1">
          <mxGeometry x="660.5" y="171" width="819.5" height="729" as="geometry" />
        </mxCell>
        <mxCell id="BJNJkRzmfPv45xhMf_EX-31" value="" style="edgeStyle=orthogonalEdgeStyle;rounded=0;orthogonalLoop=1;jettySize=auto;html=1;entryX=0.5;entryY=0;entryDx=0;entryDy=0;startArrow=classic;startFill=1;strokeWidth=3;" edge="1" parent="1" source="BJNJkRzmfPv45xhMf_EX-2" target="BJNJkRzmfPv45xhMf_EX-6">
          <mxGeometry relative="1" as="geometry">
            <mxPoint x="1070" y="430" as="targetPoint" />
          </mxGeometry>
        </mxCell>
        <mxCell id="BJNJkRzmfPv45xhMf_EX-2" value="Frontend" style="rounded=0;whiteSpace=wrap;html=1;fontSize=20;fillColor=#6d8764;strokeColor=#3A5431;fontColor=#000000;fontFamily=Tahoma;" vertex="1" parent="1">
          <mxGeometry x="1010" y="300" width="120" height="60" as="geometry" />
        </mxCell>
        <mxCell id="BJNJkRzmfPv45xhMf_EX-16" style="edgeStyle=orthogonalEdgeStyle;rounded=0;orthogonalLoop=1;jettySize=auto;html=1;entryX=0;entryY=0.5;entryDx=0;entryDy=0;strokeWidth=2;" edge="1" parent="1" source="BJNJkRzmfPv45xhMf_EX-3" target="BJNJkRzmfPv45xhMf_EX-2">
          <mxGeometry relative="1" as="geometry" />
        </mxCell>
        <mxCell id="BJNJkRzmfPv45xhMf_EX-17" style="edgeStyle=orthogonalEdgeStyle;rounded=0;orthogonalLoop=1;jettySize=auto;html=1;entryX=1;entryY=0.5;entryDx=0;entryDy=0;startArrow=classic;startFill=1;exitX=0.25;exitY=0;exitDx=0;exitDy=0;strokeWidth=2;endArrow=none;endFill=0;" edge="1" parent="1" source="BJNJkRzmfPv45xhMf_EX-3" target="BJNJkRzmfPv45xhMf_EX-13">
          <mxGeometry relative="1" as="geometry">
            <mxPoint x="780" y="310" as="sourcePoint" />
            <mxPoint x="660" y="220" as="targetPoint" />
            <Array as="points">
              <mxPoint x="750" y="240" />
            </Array>
          </mxGeometry>
        </mxCell>
        <mxCell id="BJNJkRzmfPv45xhMf_EX-43" value="1" style="edgeLabel;html=1;align=center;verticalAlign=middle;resizable=0;points=[];fontSize=18;" vertex="1" connectable="0" parent="BJNJkRzmfPv45xhMf_EX-17">
          <mxGeometry x="-0.6523" relative="1" as="geometry">
            <mxPoint x="-67" y="-25" as="offset" />
          </mxGeometry>
        </mxCell>
        <mxCell id="BJNJkRzmfPv45xhMf_EX-21" style="edgeStyle=orthogonalEdgeStyle;rounded=0;orthogonalLoop=1;jettySize=auto;html=1;exitX=0;exitY=0.5;exitDx=0;exitDy=0;entryX=1;entryY=0.5;entryDx=0;entryDy=0;startArrow=classic;startFill=1;strokeWidth=2;endArrow=none;endFill=0;" edge="1" parent="1" source="BJNJkRzmfPv45xhMf_EX-3" target="BJNJkRzmfPv45xhMf_EX-14">
          <mxGeometry relative="1" as="geometry" />
        </mxCell>
        <mxCell id="BJNJkRzmfPv45xhMf_EX-26" style="edgeStyle=orthogonalEdgeStyle;rounded=0;orthogonalLoop=1;jettySize=auto;html=1;exitX=0.25;exitY=1;exitDx=0;exitDy=0;entryX=1;entryY=0.5;entryDx=0;entryDy=0;startArrow=classic;startFill=1;strokeWidth=2;endArrow=none;endFill=0;" edge="1" parent="1" source="BJNJkRzmfPv45xhMf_EX-3" target="BJNJkRzmfPv45xhMf_EX-15">
          <mxGeometry relative="1" as="geometry" />
        </mxCell>
        <mxCell id="BJNJkRzmfPv45xhMf_EX-3" value="IP - API" style="rounded=0;whiteSpace=wrap;html=1;fontSize=20;fillColor=#C28408;strokeColor=#BD7000;fontColor=#000000;fontFamily=Tahoma;" vertex="1" parent="1">
          <mxGeometry x="720" y="300" width="120" height="60" as="geometry" />
        </mxCell>
        <mxCell id="BJNJkRzmfPv45xhMf_EX-33" style="edgeStyle=orthogonalEdgeStyle;rounded=0;orthogonalLoop=1;jettySize=auto;html=1;startArrow=classic;startFill=1;endArrow=none;endFill=0;strokeWidth=3;" edge="1" parent="1" source="BJNJkRzmfPv45xhMf_EX-5">
          <mxGeometry relative="1" as="geometry">
            <mxPoint x="1070" y="479.9999999999999" as="targetPoint" />
            <Array as="points">
              <mxPoint x="807" y="480" />
            </Array>
          </mxGeometry>
        </mxCell>
        <mxCell id="BJNJkRzmfPv45xhMf_EX-5" value="Recipes - API" style="rounded=0;whiteSpace=wrap;html=1;fontSize=20;fillColor=#76608a;strokeColor=#432D57;fontColor=#000000;fontFamily=Tahoma;" vertex="1" parent="1">
          <mxGeometry x="712.5" y="590" width="190" height="60" as="geometry" />
        </mxCell>
        <mxCell id="BJNJkRzmfPv45xhMf_EX-6" value="Ingredients - API" style="rounded=0;whiteSpace=wrap;html=1;fontSize=20;fillColor=#76608a;strokeColor=#432D57;fontColor=#000000;fontFamily=Tahoma;" vertex="1" parent="1">
          <mxGeometry x="975" y="590" width="190" height="60" as="geometry" />
        </mxCell>
        <mxCell id="BJNJkRzmfPv45xhMf_EX-32" style="edgeStyle=orthogonalEdgeStyle;rounded=0;orthogonalLoop=1;jettySize=auto;html=1;endArrow=none;endFill=0;startArrow=classic;startFill=1;strokeWidth=3;" edge="1" parent="1" source="BJNJkRzmfPv45xhMf_EX-7">
          <mxGeometry relative="1" as="geometry">
            <mxPoint x="1070" y="480" as="targetPoint" />
            <Array as="points">
              <mxPoint x="1333" y="480" />
            </Array>
          </mxGeometry>
        </mxCell>
        <mxCell id="BJNJkRzmfPv45xhMf_EX-39" style="edgeStyle=orthogonalEdgeStyle;rounded=0;orthogonalLoop=1;jettySize=auto;html=1;exitX=1;exitY=0.25;exitDx=0;exitDy=0;endArrow=none;endFill=0;startArrow=classicThin;startFill=1;strokeWidth=2;entryX=0;entryY=0.5;entryDx=0;entryDy=0;" edge="1" parent="1" source="BJNJkRzmfPv45xhMf_EX-7" target="BJNJkRzmfPv45xhMf_EX-36">
          <mxGeometry relative="1" as="geometry">
            <mxPoint x="1520" y="530" as="targetPoint" />
            <Array as="points">
              <mxPoint x="1460" y="605" />
              <mxPoint x="1460" y="580" />
            </Array>
          </mxGeometry>
        </mxCell>
        <mxCell id="BJNJkRzmfPv45xhMf_EX-40" style="edgeStyle=orthogonalEdgeStyle;rounded=0;orthogonalLoop=1;jettySize=auto;html=1;exitX=1;exitY=0.75;exitDx=0;exitDy=0;entryX=0;entryY=0.5;entryDx=0;entryDy=0;strokeWidth=2;startArrow=classicThin;startFill=1;endArrow=none;endFill=0;" edge="1" parent="1" source="BJNJkRzmfPv45xhMf_EX-7" target="BJNJkRzmfPv45xhMf_EX-37">
          <mxGeometry relative="1" as="geometry">
            <Array as="points">
              <mxPoint x="1460" y="635" />
              <mxPoint x="1460" y="660" />
            </Array>
          </mxGeometry>
        </mxCell>
        <mxCell id="BJNJkRzmfPv45xhMf_EX-7" value="Calories - API" style="rounded=0;whiteSpace=wrap;html=1;fontSize=20;fillColor=#76608a;strokeColor=#432D57;fontColor=#000000;fontFamily=Tahoma;" vertex="1" parent="1">
          <mxGeometry x="1237.5" y="590" width="190" height="60" as="geometry" />
        </mxCell>
        <mxCell id="BJNJkRzmfPv45xhMf_EX-11" style="edgeStyle=orthogonalEdgeStyle;rounded=0;orthogonalLoop=1;jettySize=auto;html=1;entryX=0.5;entryY=1;entryDx=0;entryDy=0;strokeWidth=4;startArrow=classic;startFill=1;" edge="1" parent="1" source="BJNJkRzmfPv45xhMf_EX-9" target="BJNJkRzmfPv45xhMf_EX-5">
          <mxGeometry relative="1" as="geometry" />
        </mxCell>
        <mxCell id="BJNJkRzmfPv45xhMf_EX-12" style="edgeStyle=orthogonalEdgeStyle;rounded=0;orthogonalLoop=1;jettySize=auto;html=1;entryX=0.5;entryY=1;entryDx=0;entryDy=0;strokeWidth=4;startArrow=classic;startFill=1;" edge="1" parent="1" source="BJNJkRzmfPv45xhMf_EX-9" target="BJNJkRzmfPv45xhMf_EX-6">
          <mxGeometry relative="1" as="geometry" />
        </mxCell>
        <mxCell id="BJNJkRzmfPv45xhMf_EX-9" value="&lt;font style=&quot;font-size: 25px;&quot;&gt;Database&lt;/font&gt;" style="ellipse;whiteSpace=wrap;html=1;fontFamily=Tahoma;horizontal=1;fontSize=20;fillColor=#f5f5f5;fontColor=#333333;strokeColor=#666666;" vertex="1" parent="1">
          <mxGeometry x="985" y="730" width="170" height="120" as="geometry" />
        </mxCell>
        <mxCell id="BJNJkRzmfPv45xhMf_EX-13" value="Get User IP - API" style="rounded=0;whiteSpace=wrap;html=1;fontSize=19;fillColor=#dae8fc;strokeColor=#6c8ebf;fontFamily=Tahoma;fontColor=#000000;" vertex="1" parent="1">
          <mxGeometry x="440" y="210" width="170" height="60" as="geometry" />
        </mxCell>
        <mxCell id="BJNJkRzmfPv45xhMf_EX-14" value="IP into Coordinates - API" style="rounded=0;whiteSpace=wrap;html=1;fontSize=19;fillColor=#dae8fc;strokeColor=#6c8ebf;fontFamily=Tahoma;fontColor=#000000;" vertex="1" parent="1">
          <mxGeometry x="440" y="300" width="170" height="60" as="geometry" />
        </mxCell>
        <mxCell id="BJNJkRzmfPv45xhMf_EX-15" value="Calculate Distance - API" style="rounded=0;whiteSpace=wrap;html=1;fontSize=19;fillColor=#dae8fc;strokeColor=#6c8ebf;fontFamily=Tahoma;fontColor=#000000;" vertex="1" parent="1">
          <mxGeometry x="440" y="390" width="170" height="60" as="geometry" />
        </mxCell>
        <mxCell id="BJNJkRzmfPv45xhMf_EX-36" value="USDA FDC Food - API" style="rounded=0;whiteSpace=wrap;html=1;fontSize=18;fillColor=#dae8fc;strokeColor=#6c8ebf;fontFamily=Tahoma;fontColor=#000000;" vertex="1" parent="1">
          <mxGeometry x="1520" y="550" width="170" height="60" as="geometry" />
        </mxCell>
        <mxCell id="BJNJkRzmfPv45xhMf_EX-37" value="USDA FDC Food Search - API" style="rounded=0;whiteSpace=wrap;html=1;fontSize=18;fillColor=#dae8fc;strokeColor=#6c8ebf;fontFamily=Tahoma;fontColor=#000000;" vertex="1" parent="1">
          <mxGeometry x="1520" y="630" width="170" height="60" as="geometry" />
        </mxCell>
        <mxCell id="BJNJkRzmfPv45xhMf_EX-46" value="3" style="edgeLabel;html=1;align=center;verticalAlign=middle;resizable=0;points=[];fontSize=18;" vertex="1" connectable="0" parent="1">
          <mxGeometry x="682.0033333333332" y="420" as="geometry">
            <mxPoint x="1" as="offset" />
          </mxGeometry>
        </mxCell>
        <mxCell id="BJNJkRzmfPv45xhMf_EX-47" value="2" style="edgeLabel;html=1;align=center;verticalAlign=middle;resizable=0;points=[];fontSize=18;" vertex="1" connectable="0" parent="1">
          <mxGeometry x="683" y="330.00000000000006" as="geometry" />
        </mxCell>
      </root>
    </mxGraphModel>
  </diagram>
</mxfile>
